# xmcd CD database file
#
# Track frame offsets:
#	150
#	19216
#	38329
#
# Disc length: 681 seconds
#
# Revision: 0
# Processed by: cddbd v1.5.1PL0 Copyright (c) Steve Scherf et al.
# Submitted via: CDex 1.51
#
DISCID=1602a703
DTITLE=大塚愛 - 甘えんぼ
DYEAR=2004
DGENRE=JPop
TTITLE0=甘えんぼ
TTITLE1=雨色パラソル
TTITLE2=さくらんぼ（スタジオライブｖｅｒ．）
EXTD=YEAR: 2004
EXTT0=
EXTT1=
EXTT2=
PLAYORDER=
